<mxfile host="Electron" modified="2024-09-16T08:48:58.546Z" agent="Mozilla/5.0 (X11; Linux x86_64) AppleWebKit/537.36 (KHTML, like Gecko) draw.io/24.2.5 Chrome/120.0.6099.109 Electron/28.1.0 Safari/537.36" etag="E4klqRfybIY3MJUQXePh" version="24.2.5" type="device">
  <diagram name="Page-1" id="LjialnSXJTE5UOslRlPB">
    <mxGraphModel dx="1420" dy="821" grid="1" gridSize="10" guides="1" tooltips="1" connect="1" arrows="1" fold="1" page="1" pageScale="1" pageWidth="850" pageHeight="1100" math="0" shadow="0">
      <root>
        <mxCell id="0" />
        <mxCell id="1" parent="0" />
        <mxCell id="t7w0U8cKZIDYZXpymrYo-1" value="" style="shape=table;startSize=0;container=1;collapsible=0;childLayout=tableLayout;fontSize=16;rounded=1;shadow=0;strokeColor=#6c8ebf;strokeWidth=1;fontFamily=Ubuntu;fontStyle=0;fillColor=#dae8fc;swimlaneBody=0;swimlaneHead=0;" vertex="1" parent="1">
          <mxGeometry x="230" y="260" width="240" height="160" as="geometry" />
        </mxCell>
        <mxCell id="t7w0U8cKZIDYZXpymrYo-17" style="shape=tableRow;horizontal=0;startSize=0;swimlaneHead=0;swimlaneBody=0;strokeColor=inherit;top=0;left=0;bottom=0;right=0;collapsible=0;dropTarget=0;fillColor=none;points=[[0,0.5],[1,0.5]];portConstraint=eastwest;fontSize=16;rounded=1;shadow=0;strokeWidth=1;fontFamily=Ubuntu;fontStyle=0;" vertex="1" parent="t7w0U8cKZIDYZXpymrYo-1">
          <mxGeometry width="240" height="40" as="geometry" />
        </mxCell>
        <mxCell id="t7w0U8cKZIDYZXpymrYo-18" value="1" style="shape=partialRectangle;html=1;whiteSpace=wrap;connectable=0;strokeColor=inherit;overflow=hidden;fillColor=none;top=0;left=0;bottom=0;right=0;pointerEvents=1;fontSize=16;rounded=1;shadow=0;strokeWidth=1;fontFamily=Ubuntu;fontStyle=0;" vertex="1" parent="t7w0U8cKZIDYZXpymrYo-17">
          <mxGeometry width="60" height="40" as="geometry">
            <mxRectangle width="60" height="40" as="alternateBounds" />
          </mxGeometry>
        </mxCell>
        <mxCell id="t7w0U8cKZIDYZXpymrYo-19" value="2" style="shape=partialRectangle;html=1;whiteSpace=wrap;connectable=0;strokeColor=inherit;overflow=hidden;fillColor=none;top=0;left=0;bottom=0;right=0;pointerEvents=1;fontSize=16;rounded=1;shadow=0;strokeWidth=1;fontFamily=Ubuntu;fontStyle=0;" vertex="1" parent="t7w0U8cKZIDYZXpymrYo-17">
          <mxGeometry x="60" width="60" height="40" as="geometry">
            <mxRectangle width="60" height="40" as="alternateBounds" />
          </mxGeometry>
        </mxCell>
        <mxCell id="t7w0U8cKZIDYZXpymrYo-20" value="5" style="shape=partialRectangle;html=1;whiteSpace=wrap;connectable=0;strokeColor=#82b366;overflow=hidden;fillColor=#d5e8d4;top=0;left=0;bottom=0;right=0;pointerEvents=1;fontSize=16;rounded=1;shadow=0;strokeWidth=1;fontFamily=Ubuntu;fontStyle=0;" vertex="1" parent="t7w0U8cKZIDYZXpymrYo-17">
          <mxGeometry x="120" width="60" height="40" as="geometry">
            <mxRectangle width="60" height="40" as="alternateBounds" />
          </mxGeometry>
        </mxCell>
        <mxCell id="t7w0U8cKZIDYZXpymrYo-21" value="2" style="shape=partialRectangle;html=1;whiteSpace=wrap;connectable=0;strokeColor=inherit;overflow=hidden;fillColor=none;top=0;left=0;bottom=0;right=0;pointerEvents=1;fontSize=16;rounded=1;shadow=0;strokeWidth=1;fontFamily=Ubuntu;fontStyle=0;" vertex="1" parent="t7w0U8cKZIDYZXpymrYo-17">
          <mxGeometry x="180" width="60" height="40" as="geometry">
            <mxRectangle width="60" height="40" as="alternateBounds" />
          </mxGeometry>
        </mxCell>
        <mxCell id="t7w0U8cKZIDYZXpymrYo-2" value="" style="shape=tableRow;horizontal=0;startSize=0;swimlaneHead=0;swimlaneBody=0;strokeColor=inherit;top=0;left=0;bottom=0;right=0;collapsible=0;dropTarget=0;fillColor=none;points=[[0,0.5],[1,0.5]];portConstraint=eastwest;fontSize=16;rounded=1;shadow=0;strokeWidth=1;fontFamily=Ubuntu;fontStyle=0;" vertex="1" parent="t7w0U8cKZIDYZXpymrYo-1">
          <mxGeometry y="40" width="240" height="40" as="geometry" />
        </mxCell>
        <mxCell id="t7w0U8cKZIDYZXpymrYo-14" value="2" style="shape=partialRectangle;html=1;whiteSpace=wrap;connectable=0;strokeColor=inherit;overflow=hidden;fillColor=none;top=0;left=0;bottom=0;right=0;pointerEvents=1;fontSize=16;rounded=1;shadow=0;strokeWidth=1;fontFamily=Ubuntu;fontStyle=0;" vertex="1" parent="t7w0U8cKZIDYZXpymrYo-2">
          <mxGeometry width="60" height="40" as="geometry">
            <mxRectangle width="60" height="40" as="alternateBounds" />
          </mxGeometry>
        </mxCell>
        <mxCell id="t7w0U8cKZIDYZXpymrYo-3" value="4" style="shape=partialRectangle;html=1;whiteSpace=wrap;connectable=0;strokeColor=#82b366;overflow=hidden;fillColor=#d5e8d4;top=0;left=0;bottom=0;right=0;pointerEvents=1;fontSize=16;rounded=1;shadow=0;strokeWidth=1;fontFamily=Ubuntu;fontStyle=0;" vertex="1" parent="t7w0U8cKZIDYZXpymrYo-2">
          <mxGeometry x="60" width="60" height="40" as="geometry">
            <mxRectangle width="60" height="40" as="alternateBounds" />
          </mxGeometry>
        </mxCell>
        <mxCell id="t7w0U8cKZIDYZXpymrYo-4" value="4" style="shape=partialRectangle;html=1;whiteSpace=wrap;connectable=0;strokeColor=#82b366;overflow=hidden;fillColor=#d5e8d4;top=0;left=0;bottom=0;right=0;pointerEvents=1;fontSize=16;rounded=1;shadow=0;strokeWidth=1;fontFamily=Ubuntu;fontStyle=0;" vertex="1" parent="t7w0U8cKZIDYZXpymrYo-2">
          <mxGeometry x="120" width="60" height="40" as="geometry">
            <mxRectangle width="60" height="40" as="alternateBounds" />
          </mxGeometry>
        </mxCell>
        <mxCell id="t7w0U8cKZIDYZXpymrYo-5" value="5" style="shape=partialRectangle;html=1;whiteSpace=wrap;connectable=0;strokeColor=#82b366;overflow=hidden;fillColor=#d5e8d4;top=0;left=0;bottom=0;right=0;pointerEvents=1;fontSize=16;rounded=1;shadow=0;strokeWidth=1;fontFamily=Ubuntu;fontStyle=0;" vertex="1" parent="t7w0U8cKZIDYZXpymrYo-2">
          <mxGeometry x="180" width="60" height="40" as="geometry">
            <mxRectangle width="60" height="40" as="alternateBounds" />
          </mxGeometry>
        </mxCell>
        <mxCell id="t7w0U8cKZIDYZXpymrYo-6" value="" style="shape=tableRow;horizontal=0;startSize=0;swimlaneHead=0;swimlaneBody=0;strokeColor=inherit;top=0;left=0;bottom=0;right=0;collapsible=0;dropTarget=0;fillColor=none;points=[[0,0.5],[1,0.5]];portConstraint=eastwest;fontSize=16;rounded=1;shadow=0;strokeWidth=1;fontFamily=Ubuntu;fontStyle=0;" vertex="1" parent="t7w0U8cKZIDYZXpymrYo-1">
          <mxGeometry y="80" width="240" height="40" as="geometry" />
        </mxCell>
        <mxCell id="t7w0U8cKZIDYZXpymrYo-15" value="3" style="shape=partialRectangle;html=1;whiteSpace=wrap;connectable=0;strokeColor=inherit;overflow=hidden;fillColor=none;top=0;left=0;bottom=0;right=0;pointerEvents=1;fontSize=16;rounded=1;shadow=0;strokeWidth=1;fontFamily=Ubuntu;fontStyle=0;" vertex="1" parent="t7w0U8cKZIDYZXpymrYo-6">
          <mxGeometry width="60" height="40" as="geometry">
            <mxRectangle width="60" height="40" as="alternateBounds" />
          </mxGeometry>
        </mxCell>
        <mxCell id="t7w0U8cKZIDYZXpymrYo-7" value="5" style="shape=partialRectangle;html=1;whiteSpace=wrap;connectable=0;strokeColor=#82b366;overflow=hidden;fillColor=#d5e8d4;top=0;left=0;bottom=0;right=0;pointerEvents=1;fontSize=16;rounded=1;shadow=0;strokeWidth=1;fontFamily=Ubuntu;fontStyle=0;" vertex="1" parent="t7w0U8cKZIDYZXpymrYo-6">
          <mxGeometry x="60" width="60" height="40" as="geometry">
            <mxRectangle width="60" height="40" as="alternateBounds" />
          </mxGeometry>
        </mxCell>
        <mxCell id="t7w0U8cKZIDYZXpymrYo-8" value="7" style="shape=partialRectangle;html=1;whiteSpace=wrap;connectable=0;strokeColor=inherit;overflow=hidden;fillColor=none;top=0;left=0;bottom=0;right=0;pointerEvents=1;fontSize=16;rounded=1;shadow=0;strokeWidth=1;fontFamily=Ubuntu;fontStyle=0;" vertex="1" parent="t7w0U8cKZIDYZXpymrYo-6">
          <mxGeometry x="120" width="60" height="40" as="geometry">
            <mxRectangle width="60" height="40" as="alternateBounds" />
          </mxGeometry>
        </mxCell>
        <mxCell id="t7w0U8cKZIDYZXpymrYo-9" value="1" style="shape=partialRectangle;html=1;whiteSpace=wrap;connectable=0;strokeColor=inherit;overflow=hidden;fillColor=none;top=0;left=0;bottom=0;right=0;pointerEvents=1;fontSize=16;rounded=1;shadow=0;strokeWidth=1;fontFamily=Ubuntu;fontStyle=0;" vertex="1" parent="t7w0U8cKZIDYZXpymrYo-6">
          <mxGeometry x="180" width="60" height="40" as="geometry">
            <mxRectangle width="60" height="40" as="alternateBounds" />
          </mxGeometry>
        </mxCell>
        <mxCell id="t7w0U8cKZIDYZXpymrYo-10" value="" style="shape=tableRow;horizontal=0;startSize=0;swimlaneHead=0;swimlaneBody=0;strokeColor=inherit;top=0;left=0;bottom=0;right=0;collapsible=0;dropTarget=0;fillColor=none;points=[[0,0.5],[1,0.5]];portConstraint=eastwest;fontSize=16;rounded=1;shadow=0;strokeWidth=1;fontFamily=Ubuntu;fontStyle=0;" vertex="1" parent="t7w0U8cKZIDYZXpymrYo-1">
          <mxGeometry y="120" width="240" height="40" as="geometry" />
        </mxCell>
        <mxCell id="t7w0U8cKZIDYZXpymrYo-16" value="4" style="shape=partialRectangle;html=1;whiteSpace=wrap;connectable=0;strokeColor=inherit;overflow=hidden;fillColor=none;top=0;left=0;bottom=0;right=0;pointerEvents=1;fontSize=16;rounded=1;shadow=0;strokeWidth=1;fontFamily=Ubuntu;fontStyle=0;" vertex="1" parent="t7w0U8cKZIDYZXpymrYo-10">
          <mxGeometry width="60" height="40" as="geometry">
            <mxRectangle width="60" height="40" as="alternateBounds" />
          </mxGeometry>
        </mxCell>
        <mxCell id="t7w0U8cKZIDYZXpymrYo-11" value="6" style="shape=partialRectangle;html=1;whiteSpace=wrap;connectable=0;strokeColor=#82b366;overflow=hidden;fillColor=#d5e8d4;top=0;left=0;bottom=0;right=0;pointerEvents=1;fontSize=16;rounded=1;shadow=0;strokeWidth=1;fontFamily=Ubuntu;fontStyle=0;" vertex="1" parent="t7w0U8cKZIDYZXpymrYo-10">
          <mxGeometry x="60" width="60" height="40" as="geometry">
            <mxRectangle width="60" height="40" as="alternateBounds" />
          </mxGeometry>
        </mxCell>
        <mxCell id="t7w0U8cKZIDYZXpymrYo-12" value="2" style="shape=partialRectangle;html=1;whiteSpace=wrap;connectable=0;strokeColor=inherit;overflow=hidden;fillColor=none;top=0;left=0;bottom=0;right=0;pointerEvents=1;fontSize=16;rounded=1;shadow=0;strokeWidth=1;fontFamily=Ubuntu;fontStyle=0;" vertex="1" parent="t7w0U8cKZIDYZXpymrYo-10">
          <mxGeometry x="120" width="60" height="40" as="geometry">
            <mxRectangle width="60" height="40" as="alternateBounds" />
          </mxGeometry>
        </mxCell>
        <mxCell id="t7w0U8cKZIDYZXpymrYo-13" value="4" style="shape=partialRectangle;html=1;whiteSpace=wrap;connectable=0;strokeColor=inherit;overflow=hidden;fillColor=none;top=0;left=0;bottom=0;right=0;pointerEvents=1;fontSize=16;rounded=1;shadow=0;strokeWidth=1;fontFamily=Ubuntu;fontStyle=0;" vertex="1" parent="t7w0U8cKZIDYZXpymrYo-10">
          <mxGeometry x="180" width="60" height="40" as="geometry">
            <mxRectangle width="60" height="40" as="alternateBounds" />
          </mxGeometry>
        </mxCell>
      </root>
    </mxGraphModel>
  </diagram>
</mxfile>
